<?xml version="1.0" encoding="utf-8"?>
<!--
 ~   Copyright 2020, Hasitha Aravinda
 ~
 ~   Licensed under the Apache License, Version 2.0 (the "License");
 ~   you may not use this file except in compliance with the License.
 ~   You may obtain a copy of the License at
 ~
 ~        http://www.apache.org/licenses/LICENSE-2.0
 ~
 ~   Unless required by applicable law or agreed to in writing, software
 ~   distributed under the License is distributed on an "AS IS" BASIS,
 ~   WITHOUT WARRANTIES OR CONDITIONS OF ANY KIND, either express or implied.
 ~   See the License for the specific language governing permissions and
 ~   limitations under the License.
-->
<svg xmlns:dc="http://purl.org/dc/elements/1.1/" xmlns:cc="http://creativecommons.org/ns#" xmlns:rdf="http://www.w3.org/1999/02/22-rdf-syntax-ns#" xmlns:svg="http://www.w3.org/2000/svg" xmlns="http://www.w3.org/2000/svg" xmlns:inkscape="http://www.inkscape.org/namespaces/inkscape" version="1.1" id="json" x="0px" y="0px" viewBox="0 0 14 14" style="enable-background:new 0 0 14 14;" xml:space="preserve" inkscape:version="1.0.1 (3bc2e813f5, 2020-09-07)">
        <g aria-label="{ }" id="text132" style="font-size:3.06667px;line-height:1.25;font-family:'Courier New';-inkscape-font-specification:'Courier New'">
                <path d="m 7.4888936,11.424073 v -0.359376 q 0.10931,-0.006 0.1647137,-0.03294 0.055404,-0.02695 0.095834,-0.08984 0.04043,-0.06439 0.055404,-0.160222 0.011979,-0.07188 0.011979,-0.250065 0,-0.290495 0.026953,-0.404297 0.026953,-0.1153 0.097331,-0.1841802 0.070378,-0.070378 0.2051435,-0.1108074 0.091341,-0.026953 0.2875003,-0.026953 h 0.079362 v 0.3578777 q -0.1662111,0 -0.2141278,0.01947 -0.046419,0.01797 -0.06888,0.0569 -0.022461,0.03743 -0.022461,0.130273 0,0.09434 -0.013477,0.357878 -0.00749,0.148242 -0.038932,0.241081 -0.031445,0.09134 -0.080859,0.151237 -0.047917,0.0599 -0.1482423,0.124284 0.088346,0.05091 0.1437501,0.119792 0.056901,0.06738 0.086849,0.164714 0.029948,0.09733 0.038932,0.260547 0.010482,0.248568 0.010482,0.317448 0,0.09883 0.023958,0.137761 0.023958,0.03893 0.071875,0.0584 0.049414,0.02096 0.211133,0.02096 v 0.359375 h -0.079362 q -0.2021487,0 -0.3099613,-0.03294 -0.1078126,-0.03145 -0.1826825,-0.106315 -0.073372,-0.07487 -0.098828,-0.185677 -0.025456,-0.10931 -0.025456,-0.345899 0,-0.275521 -0.023958,-0.357878 -0.032943,-0.119792 -0.1003256,-0.170703 -0.065886,-0.05241 -0.2036461,-0.0599 z" style="font-style:normal;font-variant:normal;font-weight:bold;font-stretch:normal;font-size:3.06667px;font-family:Arial;-inkscape-font-specification:'Arial Bold'" id="path1262" />
                <path d="m 10.536097,11.424073 q -0.10931,0.006 -0.164713,0.03294 -0.0554,0.02695 -0.09583,0.09134 -0.03893,0.06289 -0.0554,0.158724 -0.01198,0.07188 -0.01198,0.248568 0,0.290495 -0.02695,0.405795 -0.02546,0.115299 -0.09583,0.18418 -0.07038,0.07038 -0.206641,0.110807 -0.091341,0.02695 -0.2875003,0.02695 h -0.079362 v -0.359375 q 0.1602215,0 0.2096356,-0.02096 0.049414,-0.01947 0.071875,-0.0584 0.023958,-0.03744 0.023958,-0.128777 0.0015,-0.09134 0.013477,-0.348893 0.00749,-0.155729 0.04043,-0.248568 0.032943,-0.09434 0.086849,-0.158724 0.055404,-0.06589 0.140755,-0.1153 -0.110807,-0.07187 -0.1617185,-0.140755 -0.070378,-0.09883 -0.095833,-0.251563 -0.016471,-0.104818 -0.023958,-0.461198 -0.0015,-0.112305 -0.020964,-0.14974 -0.017969,-0.03744 -0.067383,-0.0569 -0.047917,-0.02096 -0.2171226,-0.02096 V 9.8053863 h 0.079362 q 0.2021486,0 0.3099612,0.031445 0.1078131,0.031445 0.1811851,0.1078126 0.07337,0.07487 0.09883,0.1856778 0.02695,0.10931 0.02695,0.345898 0,0.274024 0.02246,0.357878 0.03294,0.119792 0.100326,0.172201 0.06738,0.05091 0.205143,0.0584 z" style="font-style:normal;font-variant:normal;font-weight:bold;font-stretch:normal;font-size:3.06667px;font-family:Arial;-inkscape-font-specification:'Arial Bold'" id="path1264" />
        </g>
        <path id="rect185" mask="none" style="fill:#000000;stroke-width:1.29839" d="M 1.9355469 0 L 1.9355469 4.8769531 L 0.94335938 4.8769531 L 0.94335938 9.1230469 L 1.9355469 9.1230469 L 1.9355469 14 L 12.064453 14 L 12.064453 9.1230469 L 13.056641 9.1230469 L 13.056641 4.8769531 L 12.064453 4.8769531 L 12.064453 2.9707031 L 8.9941406 0 L 1.9355469 0 z M 2.6855469 0.75 L 8.7558594 0.75 L 8.7558594 3.3105469 L 11.314453 3.3105469 L 11.314453 4.8769531 L 2.6855469 4.8769531 L 2.6855469 0.75 z M 5.6171875 5.8632812 C 5.8927086 5.8632812 6.1014755 5.9241318 6.2402344 6.0449219 C 6.3799914 6.1657119 6.4519965 6.3276474 6.4589844 6.5292969 L 6.015625 6.5488281 C 5.9966583 6.4360241 5.9554691 6.3555556 5.8925781 6.3066406 C 5.8306855 6.2567273 5.7380642 6.2304686 5.6132812 6.2304688 C 5.4845051 6.2304687 5.3834202 6.2576389 5.3105469 6.3105469 C 5.2636282 6.3444875 5.2402344 6.3903642 5.2402344 6.4472656 C 5.2402344 6.4991756 5.2627166 6.5431425 5.3066406 6.5800781 C 5.3625433 6.6269968 5.4972652 6.6756512 5.7128906 6.7265625 C 5.9285158 6.7774738 6.0885849 6.8298609 6.1914062 6.8847656 C 6.2952258 6.9386716 6.3756944 7.0145395 6.4335938 7.109375 C 6.4924918 7.2032119 6.5214844 7.3182724 6.5214844 7.4570312 C 6.5214844 7.5828127 6.4878473 7.7007377 6.4179688 7.8105469 C 6.3480901 7.920356 6.2488715 8.0027343 6.1210938 8.0566406 C 5.9933158 8.1095486 5.8332467 8.1367186 5.6425781 8.1367188 C 5.3650605 8.1367188 5.1526477 8.0711373 5.0039062 7.9433594 C 4.8551648 7.8145832 4.7672315 7.6283855 4.7382812 7.3828125 L 5.1679688 7.3398438 C 5.1939234 7.4845922 5.2473087 7.5922743 5.3261719 7.6601562 C 5.4060331 7.7280382 5.5136717 7.7617188 5.6484375 7.7617188 C 5.7911894 7.7617187 5.8988281 7.731771 5.9707031 7.671875 C 6.0435765 7.610981 6.078125 7.539844 6.078125 7.4589844 C 6.078125 7.4070744 6.0641491 7.3640623 6.0332031 7.328125 C 6.0032551 7.291189 5.9489149 7.2574221 5.8730469 7.2304688 C 5.8211369 7.2125001 5.7042102 7.1806856 5.5195312 7.1347656 C 5.281944 7.0758681 5.1153647 7.0038195 5.0195312 6.9179688 C 4.8847656 6.7971787 4.8164063 6.6502606 4.8164062 6.4765625 C 4.8164062 6.3647568 4.8472658 6.2608942 4.9101562 6.1640625 C 4.9740449 6.0662325 5.0667531 5.9923177 5.1855469 5.9414062 C 5.3053387 5.8904949 5.4484808 5.8632812 5.6171875 5.8632812 z M 7.8671875 5.8652344 C 8.1906253 5.8652344 8.4489147 5.9653644 8.6425781 6.1660156 C 8.8372398 6.3666668 8.9355469 6.6465274 8.9355469 7.0039062 C 8.9355469 7.3582903 8.8391495 7.6352862 8.6464844 7.8359375 C 8.4538192 8.0355906 8.1954865 8.1347656 7.8730469 8.1347656 C 7.5466143 8.1347656 7.2864151 8.0365454 7.09375 7.8378906 C 6.9010849 7.6382376 6.8046875 7.3630646 6.8046875 7.0136719 C 6.8046875 6.7900606 6.8393663 6.6029082 6.90625 6.4511719 C 6.9561633 6.3393662 7.0235243 6.2392362 7.109375 6.1503906 C 7.196224 6.061545 7.2917099 5.9940973 7.3945312 5.9511719 C 7.5312936 5.8932725 7.688498 5.8652344 7.8671875 5.8652344 z M 3.9355469 5.8828125 L 4.3789062 5.8828125 L 4.3789062 7.2734375 C 4.3789062 7.4551218 4.3620228 7.5955294 4.3300781 7.6933594 C 4.2871528 7.8211373 4.2085071 7.9240885 4.0957031 8.0019531 C 3.9828992 8.0788195 3.8350697 8.1171875 3.6503906 8.1171875 C 3.4337672 8.1171875 3.2671876 8.0563369 3.1503906 7.9355469 C 3.0335938 7.8137585 2.9736547 7.6349829 2.9726562 7.4003906 L 3.390625 7.3535156 C 3.3956183 7.479297 3.415323 7.5672309 3.4472656 7.6191406 C 3.4951823 7.6980036 3.5681856 7.7382812 3.6660156 7.7382812 C 3.7648439 7.7382813 3.8340711 7.7101995 3.875 7.6542969 C 3.9159287 7.5973955 3.9355469 7.4784722 3.9355469 7.3007812 L 3.9355469 5.8828125 z M 9.2851562 5.9023438 L 9.7167969 5.9023438 L 10.615234 7.3691406 L 10.615234 5.9023438 L 11.027344 5.9023438 L 11.027344 8.0976562 L 10.582031 8.0976562 L 9.6972656 6.6660156 L 9.6972656 8.0976562 L 9.2851562 8.0976562 L 9.2851562 5.9023438 z M 7.8710938 6.2441406 C 7.6884113 6.2441406 7.5414932 6.3058592 7.4296875 6.4316406 C 7.3178818 6.5564238 7.2617186 6.7454858 7.2617188 6.9980469 C 7.2617188 7.2466149 7.3187932 7.4356769 7.4335938 7.5644531 C 7.5483942 7.692231 7.6944009 7.7558594 7.8710938 7.7558594 C 8.0477866 7.7558594 8.1938367 7.693186 8.3066406 7.5664062 C 8.4204428 7.4386282 8.4765625 7.2467451 8.4765625 6.9921875 C 8.4765625 6.7406248 8.4213543 6.5534724 8.3105469 6.4296875 C 8.2007377 6.3059026 8.0537763 6.2441406 7.8710938 6.2441406 z M 2.6855469 9.1230469 L 11.314453 9.1230469 L 11.314453 13.25 L 2.6855469 13.25 L 2.6855469 9.1230469 z " />
        <g aria-label="JSON" id="text1279" style="font-size:3.06667px;line-height:1.25;font-family:'Courier New';-inkscape-font-specification:'Courier New'" transform="translate(10.986473)" />
</svg>
