<?xml version="1.0" encoding="utf-8"?>
<!--
 ~   Copyright 2020, Hasitha Aravinda
 ~
 ~   Licensed under the Apache License, Version 2.0 (the "License");
 ~   you may not use this file except in compliance with the License.
 ~   You may obtain a copy of the License at
 ~
 ~        http://www.apache.org/licenses/LICENSE-2.0
 ~
 ~   Unless required by applicable law or agreed to in writing, software
 ~   distributed under the License is distributed on an "AS IS" BASIS,
 ~   WITHOUT WARRANTIES OR CONDITIONS OF ANY KIND, either express or implied.
 ~   See the License for the specific language governing permissions and
 ~   limitations under the License.
-->
<svg xmlns:dc="http://purl.org/dc/elements/1.1/" xmlns:cc="http://creativecommons.org/ns#" xmlns:rdf="http://www.w3.org/1999/02/22-rdf-syntax-ns#" xmlns:svg="http://www.w3.org/2000/svg" xmlns="http://www.w3.org/2000/svg" xmlns:inkscape="http://www.inkscape.org/namespaces/inkscape" version="1.1" id="xml" x="0px" y="0px" viewBox="0 0 14 14" style="enable-background:new 0 0 14 14;" xml:space="preserve" inkscape:version="1.0.1 (3bc2e813f5, 2020-09-07)">
        <g aria-label="{ }" id="text132" style="font-size:3.06667px;line-height:1.25;font-family:'Courier New';-inkscape-font-specification:'Courier New'" transform="matrix(2.371276,0,0,3.1528476,-14.384131,-29.892244)">
                <path d="m 7.7000224,11.37099 v -0.253208 q 0.094163,-0.0042 0.1418891,-0.02321 0.047727,-0.01899 0.082554,-0.0633 0.034828,-0.04537 0.047727,-0.112889 0.010319,-0.05064 0.010319,-0.17619 0,-0.204677 0.023218,-0.284859 0.023218,-0.08124 0.083844,-0.12977 0.060626,-0.04959 0.1767165,-0.07807 0.078684,-0.01899 0.2476609,-0.01899 h 0.068365 v 0.252153 q -0.1431789,0 -0.1844557,0.01372 -0.039986,0.01266 -0.059335,0.04009 -0.019348,0.02637 -0.019348,0.09179 0,0.06647 -0.011609,0.252154 -0.00645,0.104448 -0.033537,0.16986 -0.027088,0.06436 -0.069655,0.106559 -0.041277,0.0422 -0.1277001,0.08757 0.076104,0.03587 0.1238304,0.0844 0.049016,0.04748 0.074814,0.116055 0.025798,0.06858 0.033537,0.183575 0.00903,0.175136 0.00903,0.223668 0,0.06963 0.020638,0.09706 0.020638,0.02743 0.061915,0.04115 0.042567,0.01477 0.1818759,0.01477 v 0.253209 h -0.068365 q -0.1741367,0 -0.2670095,-0.02321 -0.092873,-0.02216 -0.1573679,-0.07491 -0.063205,-0.05275 -0.085133,-0.130824 -0.021929,-0.07702 -0.021929,-0.243713 0,-0.194126 -0.020638,-0.252153 -0.028378,-0.0844 -0.086423,-0.120274 -0.056756,-0.03693 -0.1754265,-0.0422 z" style="font-style:normal;font-variant:normal;font-weight:bold;font-stretch:normal;font-size:3.06667px;font-family:Arial;-inkscape-font-specification:'Arial Bold';stroke-width:0.779066" id="path1262" />
                <path d="m 10.32497,11.37099 q -0.09416,0.0042 -0.141889,0.02321 -0.04772,0.01899 -0.08255,0.06436 -0.03353,0.04431 -0.04772,0.111834 -0.01032,0.05064 -0.01032,0.175136 0,0.204676 -0.02322,0.285914 -0.021928,0.08124 -0.08255,0.12977 -0.060631,0.04959 -0.1780065,0.07807 -0.078683,0.01899 -0.2476609,0.01899 h -0.068365 v -0.253208 q 0.1380193,0 0.180586,-0.01477 0.042567,-0.01372 0.061915,-0.04115 0.020638,-0.02638 0.020638,-0.09073 0.00129,-0.06436 0.011609,-0.245822 0.00645,-0.109724 0.034828,-0.175136 0.028378,-0.06647 0.074814,-0.111834 0.047725,-0.04642 0.1212502,-0.08124 -0.095452,-0.05064 -0.1393086,-0.09917 -0.060626,-0.06963 -0.082553,-0.177246 -0.014189,-0.07385 -0.020638,-0.32495 -0.00129,-0.07913 -0.018059,-0.105504 -0.015479,-0.02638 -0.058046,-0.04009 -0.041277,-0.01477 -0.1870356,-0.01477 v -0.252153 h 0.068365 q 0.1741365,0 0.2670094,0.02215 0.092874,0.02216 0.1560791,0.07596 0.063205,0.05275 0.085135,0.130825 0.02322,0.07702 0.02322,0.243712 0,0.193072 0.01935,0.252153 0.02838,0.0844 0.08642,0.12133 0.05804,0.03587 0.176716,0.04115 z" style="font-style:normal;font-variant:normal;font-weight:bold;font-stretch:normal;font-size:3.06667px;font-family:Arial;-inkscape-font-specification:'Arial Bold';stroke-width:0.779066" id="path1264" />
        </g>
        <g aria-label="JSON" id="text1279" style="font-size:3.06667px;line-height:1.25;font-family:'Courier New';-inkscape-font-specification:'Courier New'" transform="translate(11.094785,4.8900319)">
                <path d="m -7.0501485,5.8836902 h 0.4417323 V 7.273275 q 0,0.2725264 -0.047917,0.4192713 -0.064388,0.1916669 -0.233594,0.3084639 -0.1692059,0.1152996 -0.4462245,0.1152996 -0.3249352,0 -0.5001307,-0.1811851 Q -8.0114776,7.7524422 -8.012975,7.4005538 l 0.4177739,-0.047917 q 0.00749,0.1886721 0.055404,0.2665367 0.071875,0.1182944 0.21862,0.1182944 0.1482424,0 0.2096357,-0.083854 0.061393,-0.085352 0.061393,-0.3518884 z" style="font-style:normal;font-variant:normal;font-weight:bold;font-stretch:normal;font-size:3.06667px;font-family:Arial;-inkscape-font-specification:'Arial Bold'" id="path1281" />
                <path d="m -6.2490409,7.382585 0.4312505,-0.041927 q 0.038932,0.2171227 0.1572267,0.3189457 0.1197918,0.101823 0.3219405,0.101823 0.2141278,0 0.3219404,-0.089844 0.10931,-0.091341 0.10931,-0.2126305 0,-0.077865 -0.046419,-0.1317709 -0.044922,-0.055404 -0.1587241,-0.095834 -0.077865,-0.026953 -0.3548832,-0.095833 Q -5.82378,7.047168 -5.9675301,6.9183918 -6.1696788,6.7372067 -6.1696788,6.4766595 q 0,-0.1677085 0.094336,-0.312956 0.095833,-0.146745 0.2740237,-0.2231122 0.1796877,-0.076367 0.4327478,-0.076367 0.4132817,0 0.62142,0.1811851 0.2096356,0.1811851 0.2201174,0.4836593 l -0.4432296,0.019466 q -0.02845,-0.169206 -0.1227865,-0.2425785 -0.092839,-0.07487 -0.2800134,-0.07487 -0.1931642,0 -0.3024742,0.079362 -0.070378,0.050911 -0.070378,0.1362632 0,0.077865 0.065886,0.1332684 0.083854,0.070378 0.4072921,0.1467449 0.3234378,0.076367 0.4776698,0.1587241 0.1557293,0.080859 0.2425783,0.2231122 0.088347,0.1407554 0.088347,0.3488936 0,0.1886721 -0.1048178,0.3533859 -0.1048179,0.1647137 -0.2964847,0.2455732 -0.1916669,0.079362 -0.4776698,0.079362 -0.4162765,0 -0.6393887,-0.1916669 Q -6.2056156,7.7509445 -6.2490409,7.382585 Z" style="font-style:normal;font-variant:normal;font-weight:bold;font-stretch:normal;font-size:3.06667px;font-family:Arial;-inkscape-font-specification:'Arial Bold'" id="path1283" />
                <path d="m -4.1811349,7.0134765 q 0,-0.3354169 0.1003256,-0.5630214 0.07487,-0.1677085 0.2036461,-0.3009769 0.1302735,-0.1332684 0.2845055,-0.1976565 0.2051434,-0.086849 0.4731776,-0.086849 0.4851567,0 0.7756518,0.3009769 0.2919925,0.3009768 0.2919925,0.8370451 0,0.5315761 -0.2889977,0.832553 -0.2889977,0.2994796 -0.7726571,0.2994796 -0.4896489,0 -0.7786466,-0.2979822 -0.2889977,-0.2994795 -0.2889977,-0.8235686 z m 0.4567062,-0.014974 q 0,0.372852 0.1722007,0.5660163 0.1722007,0.1916668 0.43724,0.1916668 0.2650394,0 0.4342453,-0.1901694 0.1707033,-0.191667 0.1707033,-0.5735034 0,-0.3773441 -0.1662111,-0.5630214 -0.1647137,-0.1856773 -0.4387375,-0.1856773 -0.2740237,0 -0.4417322,0.1886721 -0.1677085,0.1871747 -0.1677085,0.5660163 z" style="font-style:normal;font-variant:normal;font-weight:bold;font-stretch:normal;font-size:3.06667px;font-family:Arial;-inkscape-font-specification:'Arial Bold'" id="path1285" />
                <path d="M -1.7014451,8.0975923 V 5.9024076 h 0.4312505 l 0.89843844,1.4659521 V 5.9024076 H 0.04002813 V 8.0975923 H -0.40469891 L -1.2896608,6.6660803 v 1.431512 z" style="font-style:normal;font-variant:normal;font-weight:bold;font-stretch:normal;font-size:3.06667px;font-family:Arial;-inkscape-font-specification:'Arial Bold'" id="path1287" />
        </g>
</svg>
