<?xml version="1.0" encoding="UTF-8" standalone="no"?>
<svg
   xmlns:dc="http://purl.org/dc/elements/1.1/"
   xmlns:cc="http://creativecommons.org/ns#"
   xmlns:rdf="http://www.w3.org/1999/02/22-rdf-syntax-ns#"
   xmlns:svg="http://www.w3.org/2000/svg"
   xmlns="http://www.w3.org/2000/svg"
   xmlns:sodipodi="http://sodipodi.sourceforge.net/DTD/sodipodi-0.dtd"
   xmlns:inkscape="http://www.inkscape.org/namespaces/inkscape"
   version="1.1"
   id="xml"
   x="0px"
   y="0px"
   viewBox="0 0 14 14"
   style="enable-background:new 0 0 14 14;"
   xml:space="preserve"
   sodipodi:docname="temp_document.svg"
   inkscape:version="1.0.1 (3bc2e813f5, 2020-09-07)"><metadata
   id="metadata120"><rdf:RDF><cc:Work
       rdf:about=""><dc:format>image/svg+xml</dc:format><dc:type
         rdf:resource="http://purl.org/dc/dcmitype/StillImage" /><dc:title /></cc:Work></rdf:RDF></metadata><defs
   id="defs118" /><sodipodi:namedview
   pagecolor="#ffffff"
   bordercolor="#666666"
   borderopacity="1"
   objecttolerance="10"
   gridtolerance="10"
   guidetolerance="10"
   inkscape:pageopacity="0"
   inkscape:pageshadow="2"
   inkscape:window-width="1920"
   inkscape:window-height="1013"
   id="namedview116"
   showgrid="false"
   inkscape:zoom="30.071429"
   inkscape:cx="14.641493"
   inkscape:cy="13.912557"
   inkscape:window-x="2391"
   inkscape:window-y="-9"
   inkscape:window-maximized="1"
   inkscape:current-layer="xml"
   inkscape:snap-page="true"
   inkscape:document-rotation="0" />
<path
   d="M 28.976168,5.5595008 V 3.3294588 L 25.896151,0.35948779 H 18.836153 V 5.5595008 h -0.08002 -0.899963 v 4.299987 h 0.899963 0.08002 V 14.359488 H 28.976168 V 9.8594878 h 0.97998 v -4.299987 z m -0.75,8.0499872 H 19.586153 V 9.8594878 h 8.640015 z M 20.636141,6.6194978 h 0.540039 l 0.459961,0.73999 0.450012,-0.73999 h 0.53003 l -0.710022,1.109986 0.780029,1.179992 h -0.560059 l -0.5,-0.789978 -0.509948,0.789978 h -0.559998 l 0.789978,-1.190002 z m 3.610047,2.289978 h -0.440003 l -0.460022,-1.799988 v 1.799988 H 22.91617 v -2.289978 h 0.700013 l 0.409973,1.559998 0.410034,-1.559998 h 0.699951 v 2.289978 h -0.429993 v -1.799988 z m 2.96997,-0.380005 v 0.380005 h -1.609985 v -2.269958 h 0.459961 v 1.889953 z m 1.01001,-2.96997 h -8.640015 v -4.450013 h 6.080017 v 2.559998 h 2.559998 z m -0.580017,6.5100092 -1.5,0.799988 v -0.450012 l 1,-0.5 -1,-0.450012 V 11.06951 l 1.5,0.699952 z m -2.200012,0.899964 h -0.399964 l 0.599976,-2.399964 h 0.400024 z m -0.599976,-0.09998 -1.5,-0.799988 v -0.300048 l 1.5,-0.699952 v 0.399964 l -1,0.450012 1,0.5 z"
   id="path113" />
<path
   id="rect185"
   style="fill:#000000;stroke-width:1.29839"
   d="M 1.9355469 0 L 1.9355469 4.8769531 L 0.94335938 4.8769531 L 0.94335938 9.1230469 L 1.9355469 9.1230469 L 1.9355469 14 L 12.064453 14 L 12.064453 9.1230469 L 13.056641 9.1230469 L 13.056641 4.8769531 L 12.064453 4.8769531 L 12.064453 2.9707031 L 8.9941406 0 L 1.9355469 0 z M 2.6855469 0.75 L 8.7558594 0.75 L 8.7558594 3.3105469 L 11.314453 3.3105469 L 11.314453 4.8769531 L 2.6855469 4.8769531 L 2.6855469 0.75 z M 2.6855469 9.1230469 L 11.314453 9.1230469 L 11.314453 13.25 L 2.6855469 13.25 L 2.6855469 9.1230469 z " /></svg>
